<svg width="407" height="66" viewBox="0 0 407 66" fill="none" xmlns="http://www.w3.org/2000/svg">
<path d="M35.582 44.436H49.778C47.258 55.02 37.934 63.672 25.334 63.672C11.222 63.672 0.385986 52.584 0.385986 38.724C0.385986 25.032 11.054 13.944 24.998 13.944C37.346 13.944 47.342 22.092 49.694 33.516H35.582C34.07 30.324 31.298 26.964 25.502 26.964C18.866 26.628 14.414 32.088 14.414 38.808C14.414 45.612 18.866 50.652 25.502 50.652C31.298 50.652 34.07 47.292 35.582 44.436Z" fill="black"/>
<path d="M106.423 15.54V62.16H92.4789V57.12H92.3109C89.9589 61.656 84.1629 63.756 78.7029 63.756C63.9189 63.756 55.2669 52.164 55.2669 38.808C55.2669 23.52 66.2709 13.944 78.7029 13.944C86.3469 13.944 90.6309 17.64 92.3109 20.496H92.4789V15.54H106.423ZM69.2109 38.976C69.2109 43.344 72.4029 50.736 80.8029 50.736C89.5389 50.736 92.4789 43.344 92.4789 38.808C92.4789 33.18 88.6149 26.964 80.7189 26.964C72.7389 26.964 69.2109 33.684 69.2109 38.976Z" fill="black"/>
<path d="M150.111 28.644H136.419C136.335 27.636 136.167 25.116 132.051 25.116C129.111 25.116 128.103 26.964 128.103 28.224C128.103 30.744 131.547 32.172 135.243 33.264C143.139 35.448 151.539 37.8 151.539 47.88C151.539 57.708 142.887 63.756 132.555 63.756C125.499 63.756 114.831 60.564 113.571 48.3H127.431C128.019 52.584 132.135 52.584 132.723 52.584C135.075 52.584 137.595 51.24 137.595 48.972C137.595 45.36 134.151 44.94 125.247 41.496C119.199 39.564 114.159 35.616 114.159 29.316C114.159 20.076 122.559 13.944 132.219 13.944C138.351 13.944 148.935 16.38 150.111 28.644Z" fill="black"/>
<path d="M191.441 44.436H205.637C203.117 55.02 193.793 63.672 181.193 63.672C167.081 63.672 156.245 52.584 156.245 38.724C156.245 25.032 166.913 13.944 180.857 13.944C193.205 13.944 203.201 22.092 205.553 33.516H191.441C189.929 30.324 187.157 26.964 181.361 26.964C174.725 26.628 170.273 32.088 170.273 38.808C170.273 45.612 174.725 50.652 181.361 50.652C187.157 50.652 189.929 47.292 191.441 44.436Z" fill="black"/>
<path d="M262.282 15.54V62.16H248.338V57.12H248.17C245.818 61.656 240.022 63.756 234.562 63.756C219.778 63.756 211.126 52.164 211.126 38.808C211.126 23.52 222.13 13.944 234.562 13.944C242.206 13.944 246.49 17.64 248.17 20.496H248.338V15.54H262.282ZM225.07 38.976C225.07 43.344 228.262 50.736 236.662 50.736C245.398 50.736 248.338 43.344 248.338 38.808C248.338 33.18 244.474 26.964 236.578 26.964C228.598 26.964 225.07 33.684 225.07 38.976Z" fill="black"/>
<path d="M321.007 0V62.16H307.735V57.12H307.567C306.391 59.052 303.031 63.672 293.623 63.672C279.511 63.672 270.271 52.752 270.271 38.724C270.271 22.932 281.527 13.944 293.371 13.944C301.603 13.944 305.551 17.976 307.063 19.488V0H321.007ZM284.215 38.64C284.215 45.864 289.339 50.652 295.891 50.652C304.627 50.652 307.819 43.512 307.819 38.64C307.819 33.012 303.787 26.964 296.059 26.964C287.995 26.964 284.215 33.264 284.215 38.64Z" fill="black"/>
<path d="M361.767 47.544H376.047C373.779 52.752 370.503 56.784 366.555 59.472C362.691 62.244 358.071 63.672 353.283 63.672C339.927 63.672 328.587 52.836 328.587 38.976C328.587 25.956 338.835 13.944 353.031 13.944C367.227 13.944 377.643 25.2 377.643 39.396C377.643 41.244 377.475 42 377.307 43.092H342.363C343.203 48.636 347.823 51.912 353.283 51.912C357.567 51.912 359.835 49.98 361.767 47.544ZM342.531 33.684H363.699C363.111 30.912 360.339 25.704 353.115 25.704C345.891 25.704 343.119 30.912 342.531 33.684Z" fill="black"/>
<ellipse cx="399.614" cy="21.16" rx="7" ry="7" transform="rotate(-180 399.614 21.16)" fill="black"/>
<ellipse cx="399.614" cy="39.16" rx="7" ry="7" transform="rotate(-180 399.614 39.16)" fill="#4E4E4E"/>
<ellipse cx="399.614" cy="57.16" rx="7" ry="7" transform="rotate(-180 399.614 57.16)" fill="#F5F5F5"/>
</svg>
