<svg width="24" height="24" viewBox="0 0 24 24" fill="none" xmlns="http://www.w3.org/2000/svg">
<path d="M20 7L12 3L4 7.5V17L12 21.5L20 16.5V7Z" fill="white"/>
<path fill-rule="evenodd" clip-rule="evenodd" d="M11.4282 2.05895C11.8052 1.97882 12.1948 1.97882 12.5717 2.05895C13.0005 2.15008 13.3907 2.3758 13.8874 2.66305C13.9162 2.67973 13.9454 2.69662 13.975 2.7137L19.0547 5.64645C19.0843 5.66353 19.1135 5.68037 19.1423 5.69701C19.6394 5.98349 20.03 6.20859 20.3233 6.53432C20.5812 6.82071 20.776 7.15811 20.8951 7.52463C21.0305 7.94148 21.0302 8.39231 21.0297 8.96604C21.0297 8.99935 21.0297 9.03309 21.0297 9.06725V14.9328C21.0297 14.9669 21.0297 15.0006 21.0297 15.034C21.0302 15.6077 21.0305 16.0585 20.8951 16.4754C20.776 16.8419 20.5812 17.1793 20.3233 17.4657C20.03 17.7914 19.6394 18.0165 19.1424 18.303C19.1135 18.3196 19.0843 18.3365 19.0547 18.3536L13.975 21.2863C13.9454 21.3034 13.9162 21.3203 13.8874 21.337C13.3907 21.6242 13.0005 21.8499 12.5717 21.9411C12.1948 22.0212 11.8052 22.0212 11.4282 21.9411C10.9995 21.8499 10.6093 21.6242 10.1126 21.337C10.0838 21.3203 10.0546 21.3034 10.025 21.2863L4.94532 18.3536C4.91573 18.3365 4.88651 18.3196 4.85765 18.303C4.36056 18.0165 3.96995 17.7914 3.67667 17.4657C3.4188 17.1793 3.224 16.8419 3.10491 16.4754C2.96947 16.0585 2.96982 15.6077 2.97027 15.034C2.97029 15.0006 2.97032 14.9669 2.97032 14.9328V9.06725C2.97032 9.03309 2.97029 8.99936 2.97027 8.96604C2.96982 8.39231 2.96947 7.94149 3.10491 7.52463C3.224 7.15811 3.4188 6.82071 3.67667 6.53432C3.96995 6.20859 4.36055 5.98349 4.85764 5.69701C4.88651 5.68037 4.91573 5.66353 4.94532 5.64645L10.025 2.7137C10.0546 2.69661 10.0838 2.67973 10.1126 2.66305C10.6093 2.37579 10.9995 2.15008 11.4282 2.05895ZM12.2599 3.52617C12.0885 3.48975 11.9114 3.48975 11.7401 3.52617C11.574 3.56147 11.4017 3.65091 10.775 4.01273L5.69532 6.94549C5.06862 7.30731 4.90499 7.41184 4.79139 7.53801C4.67417 7.66819 4.58563 7.82156 4.5315 7.98816C4.47903 8.14963 4.47032 8.3436 4.47032 9.06725V14.9328C4.47032 15.6564 4.47903 15.8504 4.5315 16.0118C4.58563 16.1784 4.67417 16.3318 4.79139 16.462C4.90499 16.5882 5.06862 16.6927 5.69532 17.0545L10.775 19.9873C11.4017 20.3491 11.574 20.4385 11.7401 20.4738C11.9114 20.5103 12.0885 20.5103 12.2599 20.4738C12.426 20.4385 12.5983 20.3491 13.225 19.9873L18.3047 17.0545C18.9314 16.6927 19.095 16.5882 19.2086 16.462C19.3258 16.3318 19.4144 16.1784 19.4685 16.0118C19.521 15.8504 19.5297 15.6564 19.5297 14.9328V9.06725C19.5297 8.3436 19.521 8.14963 19.4685 7.98816C19.4144 7.82156 19.3258 7.66819 19.2086 7.53801C19.095 7.41184 18.9314 7.30731 18.3047 6.94549L13.225 4.01273C12.5983 3.65091 12.426 3.56147 12.2599 3.52617ZM16.0303 9.13633C16.3232 9.42922 16.3232 9.90409 16.0303 10.197L11.3637 14.8637C11.0708 15.1565 10.5959 15.1565 10.303 14.8637L7.96966 12.5303C7.67677 12.2374 7.67677 11.7626 7.96966 11.4697C8.26256 11.1768 8.73743 11.1768 9.03032 11.4697L10.8333 13.2727L14.9697 9.13633C15.2626 8.84343 15.7374 8.84343 16.0303 9.13633Z" fill="url(#paint0_linear_7_2)"/>
<path fill-rule="evenodd" clip-rule="evenodd" d="M11.4282 2.05895C11.8052 1.97882 12.1948 1.97882 12.5717 2.05895C13.0005 2.15008 13.3907 2.3758 13.8874 2.66305C13.9162 2.67973 13.9454 2.69662 13.975 2.7137L19.0547 5.64645C19.0843 5.66353 19.1135 5.68037 19.1423 5.69701C19.6394 5.98349 20.03 6.20859 20.3233 6.53432C20.5812 6.82071 20.776 7.15811 20.8951 7.52463C21.0305 7.94148 21.0302 8.39231 21.0297 8.96604C21.0297 8.99935 21.0297 9.03309 21.0297 9.06725V14.9328C21.0297 14.9669 21.0297 15.0006 21.0297 15.034C21.0302 15.6077 21.0305 16.0585 20.8951 16.4754C20.776 16.8419 20.5812 17.1793 20.3233 17.4657C20.03 17.7914 19.6394 18.0165 19.1424 18.303C19.1135 18.3196 19.0843 18.3365 19.0547 18.3536L13.975 21.2863C13.9454 21.3034 13.9162 21.3203 13.8874 21.337C13.3907 21.6242 13.0005 21.8499 12.5717 21.9411C12.1948 22.0212 11.8052 22.0212 11.4282 21.9411C10.9995 21.8499 10.6093 21.6242 10.1126 21.337C10.0838 21.3203 10.0546 21.3034 10.025 21.2863L4.94532 18.3536C4.91573 18.3365 4.88651 18.3196 4.85765 18.303C4.36056 18.0165 3.96995 17.7914 3.67667 17.4657C3.4188 17.1793 3.224 16.8419 3.10491 16.4754C2.96947 16.0585 2.96982 15.6077 2.97027 15.034C2.97029 15.0006 2.97032 14.9669 2.97032 14.9328V9.06725C2.97032 9.03309 2.97029 8.99936 2.97027 8.96604C2.96982 8.39231 2.96947 7.94149 3.10491 7.52463C3.224 7.15811 3.4188 6.82071 3.67667 6.53432C3.96995 6.20859 4.36055 5.98349 4.85764 5.69701C4.88651 5.68037 4.91573 5.66353 4.94532 5.64645L10.025 2.7137C10.0546 2.69661 10.0838 2.67973 10.1126 2.66305C10.6093 2.37579 10.9995 2.15008 11.4282 2.05895ZM12.2599 3.52617C12.0885 3.48975 11.9114 3.48975 11.7401 3.52617C11.574 3.56147 11.4017 3.65091 10.775 4.01273L5.69532 6.94549C5.06862 7.30731 4.90499 7.41184 4.79139 7.53801C4.67417 7.66819 4.58563 7.82156 4.5315 7.98816C4.47903 8.14963 4.47032 8.3436 4.47032 9.06725V14.9328C4.47032 15.6564 4.47903 15.8504 4.5315 16.0118C4.58563 16.1784 4.67417 16.3318 4.79139 16.462C4.90499 16.5882 5.06862 16.6927 5.69532 17.0545L10.775 19.9873C11.4017 20.3491 11.574 20.4385 11.7401 20.4738C11.9114 20.5103 12.0885 20.5103 12.2599 20.4738C12.426 20.4385 12.5983 20.3491 13.225 19.9873L18.3047 17.0545C18.9314 16.6927 19.095 16.5882 19.2086 16.462C19.3258 16.3318 19.4144 16.1784 19.4685 16.0118C19.521 15.8504 19.5297 15.6564 19.5297 14.9328V9.06725C19.5297 8.3436 19.521 8.14963 19.4685 7.98816C19.4144 7.82156 19.3258 7.66819 19.2086 7.53801C19.095 7.41184 18.9314 7.30731 18.3047 6.94549L13.225 4.01273C12.5983 3.65091 12.426 3.56147 12.2599 3.52617Z" fill="black"/>
<defs>
<linearGradient id="paint0_linear_7_2" x1="6.5" y1="14" x2="21.5" y2="6.5" gradientUnits="userSpaceOnUse">
<stop offset="0.175" stop-color="#FF00CC"/>
<stop offset="0.52" stop-color="#0095FF"/>
<stop offset="0.62" stop-color="#00B3FF"/>
<stop offset="0.845" stop-color="#FFD000"/>
</linearGradient>
</defs>
</svg>
